<svg height="512" viewBox="0 0 24 24" width="512" xmlns="http://www.w3.org/2000/svg"><g id="_01" data-name="01"><path d="m22.066 7.2a7.933 7.933 0 0 0 -5.266-5.266c-1.882-.551-3.17-.5-4.055.164a3.955 3.955 0 0 0 -1.184 3.275v2.875c0 2.785 1.261 4.2 3.75 4.2h3.318a3.957 3.957 0 0 0 3.271-1.189c.664-.885.717-2.173.166-4.059zm-1.366 3.159c-.3.394-.974.585-2.077.585h-3.317c-1.39 0-2.25-.451-2.25-2.7v-2.871c0-1.1.19-1.78.584-2.075a1.556 1.556 0 0 1 .941-.242 6.668 6.668 0 0 1 1.793.317 6.492 6.492 0 0 1 4.252 4.252c.396 1.353.421 2.275.074 2.734zm.34 4.186a9.821 9.821 0 0 1 -9.662 7.9 10.175 10.175 0 0 1 -1.613-.13 9.841 9.841 0 0 1 -.353-19.348.75.75 0 0 1 .3 1.47 8.341 8.341 0 1 0 9.857 9.814.75.75 0 0 1 1.471.294z"/></g></svg>