<svg xmlns="http://www.w3.org/2000/svg" version="1.1" xmlns:xlink="http://www.w3.org/1999/xlink" width="512" height="512" x="0" y="0" viewBox="0 0 24 24" style="enable-background:new 0 0 512 512" xml:space="preserve" class=""><g><circle cx="9" cy="5" r="4.25" fill="#eceff1" opacity="0" data-original="#eceff1" class=""></circle><path fill="#eceff1" d="M.75 20.25V16.5a3.755 3.755 0 0 1 3.75-3.75h9a3.755 3.755 0 0 1 3.75 3.75v3.75z" opacity="0" data-original="#eceff1" class=""></path><path d="M9 10c-2.757 0-5-2.243-5-5s2.243-5 5-5 5 2.243 5 5-2.243 5-5 5zm0-8.5C7.07 1.5 5.5 3.07 5.5 5S7.07 8.5 9 8.5s3.5-1.57 3.5-3.5S10.93 1.5 9 1.5zM6.5 21H.75a.75.75 0 0 1-.75-.75v-3.5A4.756 4.756 0 0 1 4.75 12h8.5c1.295 0 2.544.534 3.425 1.465a.751.751 0 0 1-1.09 1.032 3.223 3.223 0 0 0-2.335-.996h-8.5a3.254 3.254 0 0 0-3.25 3.25v2.75h5A.75.75 0 0 1 6.5 21z" fill="#000000" opacity="1" data-original="#000000" class=""></path><path d="M14.5 24a.75.75 0 0 1-.651-.378L12.065 20.5H9.75a.75.75 0 0 1 0-1.5h2.75a.75.75 0 0 1 .651.378l1.278 2.236 2.39-5.179a.753.753 0 0 1 .656-.436c.293.013.548.143.683.391l2.787 5.109h2.305a.75.75 0 0 1 0 1.501H20.5a.75.75 0 0 1-.658-.391l-2.286-4.19-2.375 5.146a.75.75 0 0 1-.648.435H14.5z" fill="#000000" opacity="1" data-original="#000000" class=""></path></g></svg>